<svg xmlns="http://www.w3.org/2000/svg" viewBox="0 0 240.6 28.34" preserveAspectRatio="xMinYMin"><defs><style>.cls-1{fill:#575756;}.cls-2{fill:none;}.cls-3{fill:#0069b4;}</style></defs><g id="Laag_2" data-name="Laag 2"><g id="Laag_1-2" data-name="Laag 1"><path class="cls-1" d="M7.52,10.62a10.9,10.9,0,0,1,7.74-6.15L12.77,1.52a2.85,2.85,0,0,0-2-1L5,0H4.79a2.9,2.9,0,0,0-2.2,4.77Z"/><path class="cls-1" d="M6.88,17.83,1,22.74a2.9,2.9,0,0,0,1.63,5.11l5.74.49h.25a2.84,2.84,0,0,0,1.87-.69l2.89-2.43a10.93,10.93,0,0,1-6.56-7.4"/><polygon class="cls-2" points="21.5 13.85 21.51 14.19 21.5 14.48 21.47 14.76 21.42 15.04 21.36 15.31 21.27 15.59 21.17 15.85 21.05 16.11 20.91 16.36 20.75 16.65 20.6 16.95 20.46 17.26 20.34 17.57 20.23 17.9 20.14 18.22 20.07 18.55 20.01 18.88 19.97 19.22 19.95 19.55 19.94 19.89 19.94 20.77 19.93 20.87 19.9 20.96 19.89 20.99 19.58 21.25 19.54 21.26 19.45 21.27 15.48 21.27 15.39 21.26 15.3 21.23 15.21 21.18 15.14 21.12 15.08 21.05 15.03 20.97 15 20.87 14.99 20.78 14.99 19.4 14.52 19.4 14.37 19.39 14.22 19.36 14.08 19.32 13.94 19.25 13.8 19.18 13.68 19.08 13.58 18.97 13.48 18.85 13.4 18.72 13.34 18.58 13.3 18.44 13.27 18.29 13.26 18.13 13.26 16.85 12.52 16.85 12.44 16.84 12.36 16.82 12.29 16.77 12.23 16.71 12.18 16.63 12.15 16.55 12.15 16.47 12.16 16.38 12.77 13.85 12.28 13.85 11.7 16.27 11.68 16.39 11.68 16.51 11.69 16.62 11.72 16.74 11.76 16.85 11.82 16.95 11.89 17.04 11.98 17.12 12.08 17.19 12.18 17.25 12.29 17.29 12.41 17.32 12.52 17.32 12.79 17.32 12.79 18.13 12.8 18.3 12.82 18.47 12.87 18.64 12.92 18.8 12.99 18.95 13.08 19.1 13.18 19.23 13.3 19.36 13.42 19.48 13.56 19.58 13.71 19.66 13.86 19.73 14.02 19.79 14.18 19.84 14.35 19.86 14.52 19.87 14.52 20.78 14.53 20.91 14.56 21.03 14.6 21.15 14.65 21.26 14.72 21.36 14.81 21.46 14.9 21.54 15 21.61 15.12 21.66 15.23 21.7 15.36 21.73 15.48 21.74 19 21.74 18.63 22.05 18.63 22.05 19 21.74 19.44 21.74 19.57 21.73 19.7 21.71 19.81 21.66 19.93 21.61 20.03 21.54 20.13 21.45 20.21 21.36 20.28 21.25 20.34 21.14 20.38 21.02 20.4 20.9 20.41 20.77 20.41 20.55 20.76 20.26 20.41 20.55 20.41 19.89 20.42 19.55 20.45 19.2 20.49 18.86 20.56 18.52 20.64 18.18 20.74 17.85 20.86 17.53 20.99 17.21 21.15 16.9 21.32 16.6 21.46 16.35 21.58 16.1 21.68 15.84 21.77 15.57 21.85 15.3 21.91 15.03 21.95 14.75 21.97 14.47 21.98 14.19 21.97 13.85 21.5 13.85"/><polygon class="cls-2" points="13.81 14.78 13.87 14.86 13.94 14.93 14.01 14.98 14.1 15.02 14.19 15.04 14.28 15.05 14.38 15.04 14.47 15.02 14.55 14.98 14.63 14.93 14.7 14.86 14.75 14.78 14.79 14.7 14.81 14.61 14.82 14.51 14.81 14.42 14.79 14.33 14.75 14.24 14.7 14.16 14.63 14.1 14.55 14.04 14.47 14 14.38 13.98 14.28 13.97 14.19 13.98 14.1 14 14.01 14.04 13.94 14.1 13.87 14.16 13.81 14.24 13.77 14.33 13.75 14.42 13.74 14.51 13.75 14.61 13.77 14.7 13.81 14.78"/><polygon class="cls-2" points="22.3 12.79 22.25 12.49 22.19 12.2 22.11 11.91 22.06 11.76 22.06 11.76 22.01 11.63 21.9 11.35 21.77 11.08 21.63 10.82 21.61 10.78 20.47 9.46 20.23 9.28 19.99 9.11 19.73 8.95 19.66 8.91 19.66 8.91 19.47 8.82 19.2 8.69 18.92 8.59 18.63 8.49 18.35 8.42 18.05 8.36 17.75 8.32 17.46 8.29 17.16 8.29 16.86 8.3 16.56 8.33 16.26 8.38 15.97 8.44 15.68 8.52 15.4 8.61 15.12 8.72 14.86 8.85 14.59 9 14.34 9.16 14.1 9.33 13.86 9.52 13.64 9.72 13.43 9.93 13.24 10.16 13.05 10.39 12.88 10.64 12.73 10.9 12.59 11.16 12.47 11.43 12.36 11.71 12.26 12 12.19 12.29 12.16 12.37 12.12 12.44 12.06 12.5 11.99 12.54 11.79 12.63 11.58 12.7 11.37 12.75 11.16 12.78 11.07 12.8 11 12.83 10.93 12.88 10.86 12.94 10.82 13.01 10.78 13.08 10.76 13.17 10.76 13.25 10.77 13.34 10.78 13.36 10.8 13.38 10.83 13.38 22.34 13.38 22.33 13.08 22.3 12.79"/><path class="cls-3" d="M16.82,5.78a9.35,9.35,0,1,0,9.35,9.35h0A9.35,9.35,0,0,0,16.82,5.78ZM18.91,8l.61.73L18.9,8ZM22,14.45V15l-.06.27-.08.27-.09.27-.1.26-.12.25-.14.25-.17.3-.15.31-.14.32-.12.32-.1.33-.08.34-.07.34v1.69l.35-.29-.35.29v.59l-.06.11-.07.11-.08.1-.1.08-.1.07-.12.05-.11.05H19l-.37.31h0l.37-.31H15.12L15,21.61l-.1-.07-.09-.08-.09-.1-.07-.1V19.91h-.33L14,19.79l-.16-.05-.15-.08-.15-.08-.14-.11-.12-.11-.12-.12-.1-.14L13,19,13,18.85l-.05-.16-.05-.17V17.35h-.61l-.1-.06-.1-.07L11.89,17h-.07l-.06-.1v-.58l.58-2.42h.49l-.62,2.53v.33l.06.06.07.05h.9V18.6l.06.14.08.13.1.12.11.11.11.1.14.07.14.07h1v1.57l.05.08.06.07.07.07h4.37l.31-.26h0v-2l.06-.33.07-.33.09-.32.11-.32.12-.32.14-.31.15-.3.16-.29.14-.25.12-.26.1-.26.09-.28L21.3,15l.05-.28v-.91h.47v.62Zm-8.23,0v-.27l.06-.08.07-.06L14,14h.54l.08.06.07.06,0,.08v.54l0,.08-.07.07-.08,0h-.45L14,15,14,15l-.07-.07-.06-.08v-.17Zm-2.91-1.07h0V13l.07-.06.07-.05h.37l.21,0,.21-.07.2-.09H12l.06-.06v-.15l.07-.29.1-.29.1-.28.13-.27.14-.26.15-.26L13,10.4l.18-.24.2-.23.21-.21.22-.2.24-.19.24-.17L14.59,9l.27-.15.26-.12.28-.12.28-.09L16,8.44l.29-.06.3-.05h1.49l.3.06.28.07.29.09.28.11.27.13.19.09h.07L20,9l.24.17.24.18,1.14,1.32h0l.14.26.13.27.11.28.05.13h0v.15l.08.29.06.29.05.3v.59Z"/><polygon class="cls-1" points="19.72 21.19 19.8 21.12 19.85 21.05 19.89 20.99 19.58 21.25 19.63 21.23 19.72 21.19"/><path class="cls-1" d="M44.78,2.09,39.23,15.87H36.65L31.1,2.09h2.3a1,1,0,0,1,.6.17,1.05,1.05,0,0,1,.35.46l3,7.94a9.65,9.65,0,0,1,.34,1c.11.38.21.72.31,1.11q.12-.58.27-1.11c.09-.34.2-.67.32-1l3-7.94a1.14,1.14,0,0,1,.34-.44,1,1,0,0,1,.6-.19Z"/><path class="cls-1" d="M46.23,11.38a3.14,3.14,0,0,0,.79,2,2.36,2.36,0,0,0,1.72.64,3,3,0,0,0,.94-.13,4.15,4.15,0,0,0,.69-.28l.54-.29a1.19,1.19,0,0,1,.48-.13.59.59,0,0,1,.48.23l.76,1a3.93,3.93,0,0,1-.92.8,4.71,4.71,0,0,1-1,.51,5.75,5.75,0,0,1-1.09.25,7.59,7.59,0,0,1-1.07.08,5.42,5.42,0,0,1-1.91-.34,4.4,4.4,0,0,1-1.55-1A4.86,4.86,0,0,1,44,13a6.52,6.52,0,0,1-.38-2.27A5.47,5.47,0,0,1,44,8.85a4.7,4.7,0,0,1,.94-1.54,4.59,4.59,0,0,1,1.5-1,5.12,5.12,0,0,1,2-.38,4.85,4.85,0,0,1,1.73.3,3.53,3.53,0,0,1,1.37.87,3.76,3.76,0,0,1,.89,1.4,4.89,4.89,0,0,1,.32,1.89,2,2,0,0,1,0,.49.8.8,0,0,1-.09.3.35.35,0,0,1-.18.16h-.3Zm4.13-1.56A2.54,2.54,0,0,0,50.25,9a1.78,1.78,0,0,0-.35-.65,1.67,1.67,0,0,0-.6-.45,2,2,0,0,0-.86-.17A2,2,0,0,0,47,8.26a2.76,2.76,0,0,0-.69,1.52Z"/><path class="cls-1" d="M57.34,3.29a1.5,1.5,0,0,1-.13.62,1.82,1.82,0,0,1-.36.51,1.67,1.67,0,0,1-.52.34,1.73,1.73,0,0,1-.64.12A1.52,1.52,0,0,1,55,4.76a1.89,1.89,0,0,1-.51-.34,2,2,0,0,1-.34-.51,1.47,1.47,0,0,1-.13-.62,1.64,1.64,0,0,1,.13-.62,2,2,0,0,1,.34-.51A1.89,1.89,0,0,1,55,1.82a1.67,1.67,0,0,1,.62-.12,1.73,1.73,0,0,1,.64.12,1.67,1.67,0,0,1,.52.34,1.82,1.82,0,0,1,.36.51A1.47,1.47,0,0,1,57.34,3.29ZM57,6.08v9.79H54.4V6.08Z"/><path class="cls-1" d="M61.91,1.71V15.87H59.29V1.71Z"/><path class="cls-1" d="M67.1,3.29a1.33,1.33,0,0,1-.13.62,1.78,1.78,0,0,1-.35.51,1.67,1.67,0,0,1-1.17.46,1.62,1.62,0,0,1-.61-.12,1.89,1.89,0,0,1-.51-.34,1.85,1.85,0,0,1-.3-.51,1.66,1.66,0,0,1,0-1.24,2,2,0,0,1,.35-.51,1.89,1.89,0,0,1,.51-.34,1.62,1.62,0,0,1,.61-.12,1.67,1.67,0,0,1,1.17.46,1.78,1.78,0,0,1,.35.51A1.46,1.46,0,0,1,67.1,3.29Zm-.31,2.79v9.79H64.17V6.08Z"/><path class="cls-1" d="M77.76,6.4v1a.45.45,0,0,1-.13.36.72.72,0,0,1-.42.2l-.8.16a2.84,2.84,0,0,1,.17,1,2.75,2.75,0,0,1-.3,1.32,2.86,2.86,0,0,1-.83,1,3.53,3.53,0,0,1-1.23.64,5.8,5.8,0,0,1-2.52.14c-.26.16-.4.34-.4.54a.43.43,0,0,0,.27.4,2.6,2.6,0,0,0,.72.17c.34,0,.67.06,1,.07l1.15.06a8.86,8.86,0,0,1,1.15.17,2.9,2.9,0,0,1,1,.39,2.13,2.13,0,0,1,.71.72,2.07,2.07,0,0,1,.27,1.14,2.49,2.49,0,0,1-.32,1.28,3.42,3.42,0,0,1-.94,1.1,5,5,0,0,1-1.5.78,6.41,6.41,0,0,1-2,.29,8.45,8.45,0,0,1-2-.21,4.43,4.43,0,0,1-1.37-.57,2.57,2.57,0,0,1-.82-.82,2,2,0,0,1-.26-1,1.62,1.62,0,0,1,.4-1.11,2.73,2.73,0,0,1,1.1-.73,1.75,1.75,0,0,1-.6-.55,1.69,1.69,0,0,1-.22-.88,1.79,1.79,0,0,1,.32-.92,2.55,2.55,0,0,1,1-.81,3.19,3.19,0,0,1-1.18-1.07,2.77,2.77,0,0,1-.44-1.56,2.88,2.88,0,0,1,1.13-2.32,3.78,3.78,0,0,1,1.25-.63,5.23,5.23,0,0,1,1.57-.22,4.67,4.67,0,0,1,2.21.49Zm-2.6,9.87a.54.54,0,0,0-.16-.42,1.16,1.16,0,0,0-.43-.25,2.7,2.7,0,0,0-.64-.14l-.79-.07h-.87a8.5,8.5,0,0,1-.87-.07,2.05,2.05,0,0,0-.55.47,1.08,1.08,0,0,0-.21.62.92.92,0,0,0,.11.43.93.93,0,0,0,.36.35,2.84,2.84,0,0,0,.68.22,6.74,6.74,0,0,0,1,.08,5.06,5.06,0,0,0,1.1-.09,2.18,2.18,0,0,0,.72-.24.92.92,0,0,0,.51-.85Zm-2.48-5.66a1.53,1.53,0,0,0,1.19-.41,1.39,1.39,0,0,0,.39-1,1.35,1.35,0,0,0-.39-1.06,2,2,0,0,0-2.38,0,1.57,1.57,0,0,0,0,2.06A1.56,1.56,0,0,0,72.68,10.61Z"/><path class="cls-1" d="M81.75,7a6,6,0,0,1,.58-.45A3.94,3.94,0,0,1,83,6.19,3.93,3.93,0,0,1,83.69,6a3.34,3.34,0,0,1,.83-.08,3.38,3.38,0,0,1,1.41.27,2.92,2.92,0,0,1,1,.77,3.24,3.24,0,0,1,.64,1.18,4.77,4.77,0,0,1,.21,1.5v6.22H85.21V9.65a1.89,1.89,0,0,0-.38-1.27,1.38,1.38,0,0,0-1.12-.45,2.37,2.37,0,0,0-1,.24,3.89,3.89,0,0,0-.92.66v7H79.13V1.71h2.62Z"/><path class="cls-1" d="M92,11.38a3.14,3.14,0,0,0,.79,2,2.36,2.36,0,0,0,1.72.64,3,3,0,0,0,.94-.13,4.15,4.15,0,0,0,.69-.28l.54-.29a1.19,1.19,0,0,1,.48-.13.56.56,0,0,1,.48.23l.76,1a3.93,3.93,0,0,1-.92.8,4.71,4.71,0,0,1-1,.51,4.94,4.94,0,0,1-1.09.25,7.59,7.59,0,0,1-1.07.08,5.42,5.42,0,0,1-1.91-.34,4.4,4.4,0,0,1-1.55-1,4.77,4.77,0,0,1-1-1.64,6.52,6.52,0,0,1-.38-2.27,5.47,5.47,0,0,1,.33-1.88,4.7,4.7,0,0,1,.94-1.54,4.74,4.74,0,0,1,1.51-1A5.24,5.24,0,0,1,96,6.31a3.53,3.53,0,0,1,1.37.87,3.79,3.79,0,0,1,.9,1.4,5.1,5.1,0,0,1,.31,1.89,2,2,0,0,1,0,.49.8.8,0,0,1-.09.3.29.29,0,0,1-.18.16H98Zm4.13-1.56A2.56,2.56,0,0,0,96,9a1.78,1.78,0,0,0-.35-.65,1.67,1.67,0,0,0-.6-.45,2,2,0,0,0-.86-.17,2,2,0,0,0-1.47.53A2.78,2.78,0,0,0,92,9.82Z"/><path class="cls-1" d="M103.1,3.29a1.33,1.33,0,0,1-.13.62,1.82,1.82,0,0,1-.36.51,1.67,1.67,0,0,1-.52.34,1.73,1.73,0,0,1-.64.12,1.67,1.67,0,0,1-.62-.12,1.85,1.85,0,0,1-.5-.34,2,2,0,0,1-.35-.51,1.47,1.47,0,0,1-.13-.62,1.64,1.64,0,0,1,.13-.62,2,2,0,0,1,.35-.51,1.85,1.85,0,0,1,.5-.34,1.67,1.67,0,0,1,.62-.12,1.73,1.73,0,0,1,.64.12,1.67,1.67,0,0,1,.52.34,1.82,1.82,0,0,1,.36.51A1.33,1.33,0,0,1,103.1,3.29Zm-.31,2.79v9.79h-2.63V6.08Z"/><path class="cls-1" d="M113.7,1.71V15.87h-1.61a.62.62,0,0,1-.65-.45l-.22-.86a5.76,5.76,0,0,1-.62.59,3.76,3.76,0,0,1-.71.46,3.83,3.83,0,0,1-.82.3,3.7,3.7,0,0,1-1,.11,3.17,3.17,0,0,1-2.58-1.31,5.38,5.38,0,0,1-.74-1.57,8.11,8.11,0,0,1-.22-2.14,6.78,6.78,0,0,1,.3-2,5.29,5.29,0,0,1,.85-1.63A4.06,4.06,0,0,1,107,6.28a3.84,3.84,0,0,1,1.73-.39,3.44,3.44,0,0,1,1.35.24,3.29,3.29,0,0,1,1,.64V1.71Zm-2.62,6.91a2,2,0,0,0-.8-.59,2.39,2.39,0,0,0-.92-.17,2.19,2.19,0,0,0-.87.18,1.7,1.7,0,0,0-.66.56,2.81,2.81,0,0,0-.44,1,6.88,6.88,0,0,0-.15,1.43,8.07,8.07,0,0,0,.12,1.39,3,3,0,0,0,.36.92,1.55,1.55,0,0,0,.57.51A1.92,1.92,0,0,0,109,14a2.31,2.31,0,0,0,1.16-.27,3.5,3.5,0,0,0,.89-.78Z"/><path class="cls-1" d="M122,8.09a.69.69,0,0,1-.22.23.46.46,0,0,1-.3.08,1.12,1.12,0,0,1-.39-.1l-.44-.2a4.79,4.79,0,0,0-.57-.21,2.92,2.92,0,0,0-.73-.09,1.69,1.69,0,0,0-1,.26.78.78,0,0,0-.35.69.7.7,0,0,0,.2.49,1.64,1.64,0,0,0,.52.35,5.63,5.63,0,0,0,.75.27l.86.28c.3.11.58.23.86.36a3.07,3.07,0,0,1,.74.49,2.11,2.11,0,0,1,.53.73,2.32,2.32,0,0,1,.2,1,3.1,3.1,0,0,1-.26,1.31,2.59,2.59,0,0,1-.77,1,3.48,3.48,0,0,1-1.25.69,5.61,5.61,0,0,1-1.73.24,5.87,5.87,0,0,1-1.94-.34,6.94,6.94,0,0,1-.83-.39,3.93,3.93,0,0,1-.68-.47l.61-1a1,1,0,0,1,.26-.27.85.85,0,0,1,.41-.09.8.8,0,0,1,.43.12l.45.25a3.33,3.33,0,0,0,.58.26,2.44,2.44,0,0,0,.84.12,2.07,2.07,0,0,0,.66-.09,1.07,1.07,0,0,0,.45-.23,1,1,0,0,0,.25-.33.88.88,0,0,0,.08-.39.68.68,0,0,0-.21-.52,1.61,1.61,0,0,0-.53-.36,6.09,6.09,0,0,0-.75-.28q-.44-.12-.87-.27a8,8,0,0,1-.87-.36,3.52,3.52,0,0,1-.75-.53,2.63,2.63,0,0,1-.53-.78,3.16,3.16,0,0,1,0-2.29,2.88,2.88,0,0,1,.72-1,3.64,3.64,0,0,1,1.18-.67,5.09,5.09,0,0,1,1.64-.24,4.92,4.92,0,0,1,1.9.34,4,4,0,0,1,1.4.89Z"/><path class="cls-1" d="M126.91,7.21a4.67,4.67,0,0,1,1.28-.93,3.38,3.38,0,0,1,4.26,1,4.43,4.43,0,0,1,.74,1.51,7.09,7.09,0,0,1,.26,2,7.25,7.25,0,0,1-.3,2.17,4.85,4.85,0,0,1-.85,1.66,4.06,4.06,0,0,1-1.27,1,3.72,3.72,0,0,1-1.71.38,3.81,3.81,0,0,1-.82-.09,3.12,3.12,0,0,1-.66-.26,2.63,2.63,0,0,1-.56-.38c-.17-.16-.33-.32-.49-.5l-.1.59a.57.57,0,0,1-.22.38.65.65,0,0,1-.41.11h-1.74V1.71H127Zm0,6.08a2.14,2.14,0,0,0,.8.6,2.56,2.56,0,0,0,.9.17,2.15,2.15,0,0,0,.87-.18,1.55,1.55,0,0,0,.68-.56,2.49,2.49,0,0,0,.44-1,6.23,6.23,0,0,0,.15-1.49,5.93,5.93,0,0,0-.12-1.33,2.25,2.25,0,0,0-.37-.89,1.49,1.49,0,0,0-.59-.52,1.88,1.88,0,0,0-.82-.16,2,2,0,0,0-1.07.27,3.63,3.63,0,0,0-.87.79Z"/><path class="cls-1" d="M139.55,5.93a5.4,5.4,0,0,1,2,.35,4.31,4.31,0,0,1,2.55,2.58,5.55,5.55,0,0,1,.35,2.1,5.64,5.64,0,0,1-.35,2.11,4.29,4.29,0,0,1-1,1.59,4.23,4.23,0,0,1-1.55,1,5.21,5.21,0,0,1-2,.36,5.49,5.49,0,0,1-2-.36,4.4,4.4,0,0,1-1.55-1,4.56,4.56,0,0,1-1-1.59,6.08,6.08,0,0,1-.36-2.11,5.77,5.77,0,0,1,.36-2.1,4.52,4.52,0,0,1,1-1.58,4.4,4.4,0,0,1,1.55-1A5.48,5.48,0,0,1,139.55,5.93Zm0,8.12a1.87,1.87,0,0,0,1.66-.78,3.94,3.94,0,0,0,.54-2.3,3.91,3.91,0,0,0-.54-2.29,1.87,1.87,0,0,0-1.66-.78,1.9,1.9,0,0,0-1.69.78,4.07,4.07,0,0,0-.54,2.29,4.1,4.1,0,0,0,.54,2.3A1.9,1.9,0,0,0,139.55,14.05Z"/><path class="cls-1" d="M148.57,7.69a4.71,4.71,0,0,1,1.07-1.32A2.27,2.27,0,0,1,151,5.89a1.76,1.76,0,0,1,1.09.31L152,8.14a.46.46,0,0,1-.15.26.42.42,0,0,1-.27.07h-1a1.78,1.78,0,0,0-.64.1,1.71,1.71,0,0,0-.5.3,2.16,2.16,0,0,0-.39.46,6.25,6.25,0,0,0-.33.63v6h-2.62V6.08h1.54a.84.84,0,0,1,.56.14.9.9,0,0,1,.21.49Z"/><path class="cls-1" d="M161.73,1.71V15.87h-1.61a.62.62,0,0,1-.65-.45l-.22-.86a5,5,0,0,1-.62.59,3.46,3.46,0,0,1-.71.46,3.74,3.74,0,0,1-.81.3,4.14,4.14,0,0,1-1,.11,3.19,3.19,0,0,1-1.45-.34,3.28,3.28,0,0,1-1.13-1,5.05,5.05,0,0,1-.75-1.57,8,8,0,0,1-.26-2.13,7.11,7.11,0,0,1,.29-2,5.29,5.29,0,0,1,.85-1.63A4.31,4.31,0,0,1,155,6.28a3.84,3.84,0,0,1,1.73-.39,3.4,3.4,0,0,1,1.35.24,3.29,3.29,0,0,1,1,.64V1.71Zm-2.62,6.91a2,2,0,0,0-.8-.59,2.39,2.39,0,0,0-.92-.17,2.14,2.14,0,0,0-.86.18,1.66,1.66,0,0,0-.67.56,3,3,0,0,0-.43,1,5.76,5.76,0,0,0-.16,1.43,6.48,6.48,0,0,0,.13,1.39,3,3,0,0,0,.35.92,1.55,1.55,0,0,0,.57.51A1.78,1.78,0,0,0,157,14a2.31,2.31,0,0,0,1.16-.27,3.5,3.5,0,0,0,.89-.78Z"/><path class="cls-3" d="M37.76,22.54a2.87,2.87,0,0,1-.19,1.12,2.38,2.38,0,0,1-.55.88,2.16,2.16,0,0,1-.85.57,3,3,0,0,1-2.19,0,2.45,2.45,0,0,1-.85-.57,2.49,2.49,0,0,1-.54-.88,3.31,3.31,0,0,1,0-2.24,2.8,2.8,0,0,1,.54-.89A2.93,2.93,0,0,1,34,20a3,3,0,0,1,2.19,0,2.45,2.45,0,0,1,.85.57,2.5,2.5,0,0,1,.55.89A3,3,0,0,1,37.76,22.54Zm-.75,0a2.5,2.5,0,0,0-.14-.9,1.86,1.86,0,0,0-.39-.68,1.71,1.71,0,0,0-.61-.42,2.13,2.13,0,0,0-.79-.15,2,2,0,0,0-.8.15,1.71,1.71,0,0,0-.61.42,2,2,0,0,0-.39.68,3,3,0,0,0,0,1.8,1.88,1.88,0,0,0,.39.67,1.59,1.59,0,0,0,.61.42,2,2,0,0,0,.8.15,2.13,2.13,0,0,0,.79-.15,1.46,1.46,0,0,0,.61-.42,1.74,1.74,0,0,0,.39-.67,2.51,2.51,0,0,0,.16-.9Z"/><path class="cls-3" d="M39.14,22l.27-.26a2.49,2.49,0,0,1,.3-.19,1.51,1.51,0,0,1,.33-.13,1.21,1.21,0,0,1,.38,0,1.3,1.3,0,0,1,.56.1.92.92,0,0,1,.4.3,1.22,1.22,0,0,1,.25.46,2.06,2.06,0,0,1,.08.6v2.45H41V22.81a1,1,0,0,0-.2-.68.71.71,0,0,0-.6-.24,1.25,1.25,0,0,0-.56.14,1.87,1.87,0,0,0-.49.4v2.83H38.5V21.41h.41a.16.16,0,0,1,.18.14Z"/><path class="cls-3" d="M43.8,25.32a.92.92,0,0,1-.7-.25,1,1,0,0,1-.25-.74V22h-.46a.17.17,0,0,1-.1,0,.21.21,0,0,1,0-.11v-.27l.64-.08.1-1.25V20.2a.11.11,0,0,1,.11,0h.34v1.33h1.11V22H43.53v2.31a.52.52,0,0,0,.12.36.42.42,0,0,0,.3.12.6.6,0,0,0,.19,0l.13-.06.1-.07a.08.08,0,0,1,.07,0,.1.1,0,0,1,.09.07l.2.32a1.29,1.29,0,0,1-.42.26A1.45,1.45,0,0,1,43.8,25.32Z"/><path class="cls-3" d="M50.58,21.41l-1.25,3.85h-.54c-.06,0-.11,0-.13-.13l-.86-2.61v-.18a.54.54,0,0,1,0,.18l-.87,2.61a.13.13,0,0,1-.15.13h-.51L45,21.41h.53a.15.15,0,0,1,.13,0,.19.19,0,0,1,.08.1L46.33,24c.05.18.08.35.11.52,0-.09.05-.17.07-.26a1.45,1.45,0,0,1,.07-.26l.82-2.49a.21.21,0,0,1,.06-.1.24.24,0,0,1,.12,0h.3a.24.24,0,0,1,.12,0,.14.14,0,0,1,.07.1l.8,2.49a.36.36,0,0,0,.07.26c.07.08.05.17.07.26v-.26a.38.38,0,0,1,.07-.26l.75-2.48a.36.36,0,0,1,.07-.1.28.28,0,0,1,.13,0Z"/><path class="cls-3" d="M54.23,24.72a1.12,1.12,0,0,1-.3.27,2.12,2.12,0,0,1-.37.18,2.75,2.75,0,0,1-.41.11h-.43a2,2,0,0,1-.73-.13,1.44,1.44,0,0,1-.58-.4,1.9,1.9,0,0,1-.39-.64,2.89,2.89,0,0,1-.13-.88,2.4,2.4,0,0,1,.12-.75,1.69,1.69,0,0,1,.92-1,2,2,0,0,1,.76-.15,1.73,1.73,0,0,1,.64.12,1.25,1.25,0,0,1,.51.33,1.51,1.51,0,0,1,.33.54,1.81,1.81,0,0,1,.12.73.37.37,0,0,1,0,.21.14.14,0,0,1-.13.06h-2.6a2.24,2.24,0,0,0,.1.63,1.24,1.24,0,0,0,.25.45,1.1,1.1,0,0,0,.38.27,1.41,1.41,0,0,0,.49.09,1.61,1.61,0,0,0,.44-.06l.32-.12.22-.13.15-.06a.16.16,0,0,1,.13.06Zm-.54-1.8a1.31,1.31,0,0,0-.07-.44.86.86,0,0,0-.2-.33.63.63,0,0,0-.31-.22.82.82,0,0,0-.41-.08,1,1,0,0,0-.77.28,1.36,1.36,0,0,0-.35.79Z"/><path class="cls-3" d="M55.69,22.18a1.87,1.87,0,0,1,.45-.62,1,1,0,0,1,.65-.22.88.88,0,0,1,.23,0,.5.5,0,0,1,.2.08v.51a.1.1,0,0,1-.11.09h0A.43.43,0,0,1,57,22h-.23a.92.92,0,0,0-.33,0,1,1,0,0,0-.25.16.86.86,0,0,0-.2.26,2.21,2.21,0,0,0-.16.35v2.43H55V21.41h.38a.22.22,0,0,1,.16,0,.38.38,0,0,1,0,.15Z"/><path class="cls-3" d="M58.38,22a2.43,2.43,0,0,1,.57-.49,1.46,1.46,0,0,1,.73-.18,1.35,1.35,0,0,1,.6.13,1.15,1.15,0,0,1,.46.38,1.56,1.56,0,0,1,.29.61,2.72,2.72,0,0,1,.11.85,2.14,2.14,0,0,1-.12.79,1.63,1.63,0,0,1-.33.64,1.42,1.42,0,0,1-.52.42,1.66,1.66,0,0,1-.7.15,1.44,1.44,0,0,1-.61-.12,1.54,1.54,0,0,1-.44-.33v1.7h-.68V21.41h.4a.16.16,0,0,1,.18.14Zm0,2.32a1,1,0,0,0,.9.46,1,1,0,0,0,.83-.38,1.79,1.79,0,0,0,.29-1.1,2.81,2.81,0,0,0-.07-.65,1.16,1.16,0,0,0-.19-.44.76.76,0,0,0-.31-.25,1.14,1.14,0,0,0-1,.07,1.71,1.71,0,0,0-.46.43Z"/><path class="cls-3" d="M66.45,21.7a.33.33,0,0,1,0,.14.14.14,0,0,1-.06.12L64.3,24.73h2.11v.53h-2.9v-.38a.75.75,0,0,1,.07-.12l2.1-2.8H63.59v-.53h2.86Z"/><path class="cls-3" d="M70.2,24.72a1.12,1.12,0,0,1-.3.27,2.12,2.12,0,0,1-.37.18,2.75,2.75,0,0,1-.41.11H68.7a2.1,2.1,0,0,1-.74-.13,1.55,1.55,0,0,1-.58-.4,1.73,1.73,0,0,1-.38-.64,2.89,2.89,0,0,1-.14-.88,2.4,2.4,0,0,1,.12-.75,1.79,1.79,0,0,1,.36-.61,1.69,1.69,0,0,1,.56-.4,2,2,0,0,1,.76-.15,1.73,1.73,0,0,1,.64.12,1.25,1.25,0,0,1,.51.33,1.51,1.51,0,0,1,.33.54,2,2,0,0,1,.13.73.37.37,0,0,1,0,.21.21.21,0,0,1-.13.06H67.53a2.67,2.67,0,0,0,.1.63,1.24,1.24,0,0,0,.25.45,1.1,1.1,0,0,0,.38.27,1.41,1.41,0,0,0,.49.09,1.61,1.61,0,0,0,.44-.06l.32-.12.22-.13a.27.27,0,0,1,.16-.06.13.13,0,0,1,.12.06Zm-.54-1.8a1.31,1.31,0,0,0-.07-.44.92.92,0,0,0-.19-.33.77.77,0,0,0-.31-.22.85.85,0,0,0-.42-.08,1,1,0,0,0-.77.28,1.39,1.39,0,0,0-.35.79Z"/><path class="cls-3" d="M71.72,19.66v5.6H71v-5.6Z"/><path class="cls-3" d="M73,25.26V22H72.6a.38.38,0,0,1-.13-.06.17.17,0,0,1,0-.12v-.27H73v-.38a1.9,1.9,0,0,1,.09-.58,1.16,1.16,0,0,1,.27-.44,1.36,1.36,0,0,1,.41-.26,1.52,1.52,0,0,1,.55-.1,1.5,1.5,0,0,1,.47.08v.34a.1.1,0,0,1-.1.1h-.25a.86.86,0,0,0-.32,0,.61.61,0,0,0-.24.15.92.92,0,0,0-.16.27,1.4,1.4,0,0,0-.06.41v.36H74.8V22H73.67v3.28Z"/><path class="cls-1" d="M77.91,20.2a.31.31,0,0,1,0,.19.65.65,0,0,1-.1.15.44.44,0,0,1-.16.1h-.37a.65.65,0,0,1-.15-.1.56.56,0,0,1-.1-.15.61.61,0,0,1,0-.19.67.67,0,0,1,0-.2.4.4,0,0,1,.1-.15.39.39,0,0,1,.15-.11h.37a.46.46,0,0,1,.16.11.31.31,0,0,1,.1.15A.34.34,0,0,1,77.91,20.2Zm-.14,1.21v3.85h-.68V21.41Z"/><path class="cls-1" d="M79.44,22l.27-.26a1.81,1.81,0,0,1,.29-.19,1.58,1.58,0,0,1,.34-.13,1.21,1.21,0,0,1,.38,0,1.3,1.3,0,0,1,.56.1,1,1,0,0,1,.4.3,1.22,1.22,0,0,1,.25.46,2.06,2.06,0,0,1,.08.6v2.45h-.68V22.81a1,1,0,0,0-.2-.68.73.73,0,0,0-.61-.24A1.25,1.25,0,0,0,80,22a2,2,0,0,0-.48.4v2.83H78.8V21.41h.41a.16.16,0,0,1,.18.14Z"/><path class="cls-1" d="M83.16,25.26V22h-.43a.38.38,0,0,1-.13-.06.24.24,0,0,1,0-.12v-.27h.61v-.38a1.9,1.9,0,0,1,.09-.58,1.16,1.16,0,0,1,.27-.44,1.36,1.36,0,0,1,.41-.26,1.78,1.78,0,0,1,.55-.1,1.51,1.51,0,0,1,.48.08v.34c0,.06,0,.09-.1.1h-.25a.86.86,0,0,0-.32,0,.61.61,0,0,0-.24.15.92.92,0,0,0-.16.27,1.41,1.41,0,0,0,0,.41v.36h1V22H83.84v3.28Z"/><path class="cls-1" d="M87,21.35a2,2,0,0,1,.76.14,1.55,1.55,0,0,1,.58.4,1.62,1.62,0,0,1,.37.63,2.53,2.53,0,0,1,0,1.63,1.62,1.62,0,0,1-.37.63,1.67,1.67,0,0,1-.58.4,2.33,2.33,0,0,1-1.52,0,1.77,1.77,0,0,1-.58-.4,1.9,1.9,0,0,1-.37-.63,2.67,2.67,0,0,1,0-1.63,1.9,1.9,0,0,1,.37-.63,1.55,1.55,0,0,1,.58-.4A2,2,0,0,1,87,21.35Zm0,3.44a1,1,0,0,0,.85-.39,2.09,2.09,0,0,0,0-2.13,1,1,0,0,0-.85-.39,1.09,1.09,0,0,0-.5.1,1.12,1.12,0,0,0-.36.29,1.85,1.85,0,0,0-.21.45,2.56,2.56,0,0,0-.07.62,1.8,1.8,0,0,0,.28,1.06A1,1,0,0,0,87,24.79Z"/><path class="cls-1" d="M90.25,22.18a1.87,1.87,0,0,1,.45-.62,1,1,0,0,1,.65-.22.88.88,0,0,1,.23,0,.7.7,0,0,1,.2.08v.51c0,.06,0,.09-.11.09a.43.43,0,0,1-.16,0h-.23A.91.91,0,0,0,91,22a1,1,0,0,0-.25.16.86.86,0,0,0-.2.26,2.21,2.21,0,0,0-.16.35v2.43h-.68V21.41h.52a.2.2,0,0,1,.06.15Z"/><path class="cls-1" d="M92.3,25.26V21.41h.4a.16.16,0,0,1,.18.14l.05.4a2,2,0,0,1,.48-.43,1.26,1.26,0,0,1,.62-.17.88.88,0,0,1,.62.22,1.25,1.25,0,0,1,.35.58,1.65,1.65,0,0,1,.22-.36,1.13,1.13,0,0,1,.64-.39,1.15,1.15,0,0,1,.37,0,1.28,1.28,0,0,1,.55.1,1,1,0,0,1,.4.28,1.15,1.15,0,0,1,.25.46,1.64,1.64,0,0,1,.09.62v2.45h-.68v-2.5a1,1,0,0,0-.2-.69.71.71,0,0,0-.57-.23.91.91,0,0,0-.32.06,1.06,1.06,0,0,0-.26.17.79.79,0,0,0-.18.29,1.09,1.09,0,0,0-.07.4v2.45h-.68V22.81a1.06,1.06,0,0,0-.18-.69.68.68,0,0,0-.55-.23.84.84,0,0,0-.46.13,1.71,1.71,0,0,0-.39.37v2.87Z"/><path class="cls-1" d="M98.37,22a2.87,2.87,0,0,1,.69-.46,2.29,2.29,0,0,1,.82-.15,1.56,1.56,0,0,1,.57.11,1,1,0,0,1,.42.29,1.17,1.17,0,0,1,.26.46,1.54,1.54,0,0,1,.09.6v2.46h-.3a.38.38,0,0,1-.15,0,.79.79,0,0,1-.09-.13l-.07-.36-.3.25a1.49,1.49,0,0,1-.3.18,1.23,1.23,0,0,1-.34.11,1.34,1.34,0,0,1-.4,0,1.52,1.52,0,0,1-.42-.06,1.09,1.09,0,0,1-.35-.19.9.9,0,0,1-.23-.32,1.17,1.17,0,0,1-.09-.45.94.94,0,0,1,.13-.44,1.21,1.21,0,0,1,.41-.37,2.48,2.48,0,0,1,.73-.27,5.24,5.24,0,0,1,1.11-.12v-.3a1,1,0,0,0-.19-.68.71.71,0,0,0-.57-.23,1.52,1.52,0,0,0-.42.06,1.92,1.92,0,0,0-.29.14l-.22.14a.33.33,0,0,1-.17.07.24.24,0,0,1-.12,0,.24.24,0,0,1-.08-.09Zm2.19,1.58a5.52,5.52,0,0,0-.8.07,2,2,0,0,0-.53.16.65.65,0,0,0-.3.22.48.48,0,0,0-.1.29,1.13,1.13,0,0,0,0,.26.62.62,0,0,0,.14.18.42.42,0,0,0,.2.1.53.53,0,0,0,.25,0,1.82,1.82,0,0,0,.33,0,1.08,1.08,0,0,0,.27-.1,1.17,1.17,0,0,0,.26-.17,1.15,1.15,0,0,0,.23-.21Z"/><path class="cls-1" d="M105.7,25.26H105V22h-2v2.31a.52.52,0,0,0,.12.36.39.39,0,0,0,.3.12.54.54,0,0,0,.18,0l.14-.06.1-.07a.08.08,0,0,1,.07,0,.1.1,0,0,1,.09.07l.2.32a1.29,1.29,0,0,1-.42.26,1.44,1.44,0,0,1-.51.09.92.92,0,0,1-.7-.25,1,1,0,0,1-.25-.74V22h-.46a.08.08,0,0,1-.11-.11v-.27l.63-.08.16-1.19a.14.14,0,0,1,0-.09.11.11,0,0,1,.11,0H103v1.33h2.66Zm.17-5.08a.41.41,0,0,1-.15.33.56.56,0,0,1-.15.1.6.6,0,0,1-.19,0,.6.6,0,0,1-.19,0l-.15-.1a.56.56,0,0,1-.1-.15.48.48,0,0,1,0-.37.86.86,0,0,1,.1-.16l.15-.1a.6.6,0,0,1,.19,0,.6.6,0,0,1,.19,0,.56.56,0,0,1,.15.1.57.57,0,0,1,.11.16A.41.41,0,0,1,105.87,20.18Z"/><path class="cls-1" d="M109.86,24.72a1.93,1.93,0,0,1-.3.27,2.64,2.64,0,0,1-.38.18,2.75,2.75,0,0,1-.41.11h-.42a2.1,2.1,0,0,1-.74-.13,1.55,1.55,0,0,1-.58-.4,1.73,1.73,0,0,1-.38-.64,2.89,2.89,0,0,1-.14-.88,2.11,2.11,0,0,1,.13-.75,1.94,1.94,0,0,1,.35-.61,1.73,1.73,0,0,1,.57-.4,2,2,0,0,1,.75-.15,1.73,1.73,0,0,1,.64.12,1.25,1.25,0,0,1,.51.33,1.7,1.7,0,0,1,.34.54,1.81,1.81,0,0,1,.12.73v.21s-.06.06-.13.06h-2.57a2.67,2.67,0,0,0,.1.63,1.24,1.24,0,0,0,.25.45,1.1,1.1,0,0,0,.38.27,1.41,1.41,0,0,0,.49.09,1.61,1.61,0,0,0,.44-.06l.32-.12.22-.13a.27.27,0,0,1,.16-.06.16.16,0,0,1,.13.06Zm-.55-1.8a1.1,1.1,0,0,0-.07-.44.92.92,0,0,0-.19-.33.77.77,0,0,0-.31-.22.85.85,0,0,0-.42-.08,1,1,0,0,0-.76.28,1.37,1.37,0,0,0-.36.79Z"/><path class="cls-1" d="M110.61,22.69h1.88v.58h-1.88Z"/><path class="cls-1" d="M118.41,24.72a1.12,1.12,0,0,1-.3.27,2.12,2.12,0,0,1-.37.18,2.75,2.75,0,0,1-.41.11h-.43a2,2,0,0,1-.73-.13,1.44,1.44,0,0,1-.58-.4,1.9,1.9,0,0,1-.39-.64,2.89,2.89,0,0,1-.13-.88,2.4,2.4,0,0,1,.12-.75,1.69,1.69,0,0,1,.92-1,2,2,0,0,1,.76-.15,1.73,1.73,0,0,1,.64.12,1.25,1.25,0,0,1,.51.33,1.51,1.51,0,0,1,.33.54,1.81,1.81,0,0,1,.12.73.37.37,0,0,1,0,.21.14.14,0,0,1-.13.06h-2.57a2.24,2.24,0,0,0,.1.63,1.24,1.24,0,0,0,.25.45,1.1,1.1,0,0,0,.38.27,1.41,1.41,0,0,0,.49.09,1.61,1.61,0,0,0,.44-.06l.32-.12.22-.13a.47.47,0,0,1,.15-.06.16.16,0,0,1,.13.06Zm-.54-1.8a1.31,1.31,0,0,0-.07-.44.92.92,0,0,0-.19-.33.77.77,0,0,0-.31-.22,1,1,0,0,0-.42-.08,1,1,0,0,0-.77.28,1.39,1.39,0,0,0-.35.79Z"/><path class="cls-1" d="M119.86,22l.27-.26a2.49,2.49,0,0,1,.3-.19,1.51,1.51,0,0,1,.33-.13,2.64,2.64,0,0,1,.94.1,1.12,1.12,0,0,1,.41.3,1.35,1.35,0,0,1,.24.46,1.74,1.74,0,0,1,.08.6v2.45h-.68V22.81a1,1,0,0,0-.2-.68.71.71,0,0,0-.6-.24,1.25,1.25,0,0,0-.56.14,1.83,1.83,0,0,0-.48.4v2.83h-.68V21.41h.4a.16.16,0,0,1,.18.14Z"/><path class="cls-1" d="M128.38,21.41l-1.57,3.85h-.61l-1.57-3.85h.55a.17.17,0,0,1,.14,0,.14.14,0,0,1,.07.1l1,2.48a2.76,2.76,0,0,1,.08.27l.06.27c0-.09,0-.18.07-.27s.05-.18.08-.27l1-2.48a.27.27,0,0,1,.08-.1.13.13,0,0,1,.12,0Z"/><path class="cls-1" d="M131.94,24.72a1.12,1.12,0,0,1-.3.27,2.12,2.12,0,0,1-.37.18,2.75,2.75,0,0,1-.41.11h-.42a2.1,2.1,0,0,1-.74-.13,1.55,1.55,0,0,1-.58-.4,1.73,1.73,0,0,1-.38-.64,2.89,2.89,0,0,1-.14-.88,2.4,2.4,0,0,1,.12-.75,1.79,1.79,0,0,1,.36-.61,1.51,1.51,0,0,1,.57-.4,2,2,0,0,1,.75-.15,1.73,1.73,0,0,1,.64.12,1.25,1.25,0,0,1,.51.33,1.51,1.51,0,0,1,.33.54A2,2,0,0,1,132,23a.37.37,0,0,1,0,.21.21.21,0,0,1-.13.06h-2.57a2.67,2.67,0,0,0,.1.63,1.24,1.24,0,0,0,.25.45,1.1,1.1,0,0,0,.38.27,1.41,1.41,0,0,0,.49.09,1.61,1.61,0,0,0,.44-.06l.32-.12.22-.13a.27.27,0,0,1,.16-.06.13.13,0,0,1,.12.06Zm-.54-1.8a1.1,1.1,0,0,0-.07-.44.92.92,0,0,0-.19-.33.77.77,0,0,0-.31-.22.85.85,0,0,0-.42-.08,1,1,0,0,0-.77.28,1.39,1.39,0,0,0-.35.79Z"/><path class="cls-1" d="M133.62,20.2a.61.61,0,0,1,0,.19l-.11.15a.44.44,0,0,1-.16.1H133a.65.65,0,0,1-.15-.1,1.3,1.3,0,0,1-.1-.15.61.61,0,0,1,0-.19.61.61,0,0,1,0-.19.56.56,0,0,1,.1-.15.72.72,0,0,1,.15-.11.6.6,0,0,1,.19,0,.54.54,0,0,1,.18,0,.36.36,0,0,1,.16.11.33.33,0,0,1,.11.15A.61.61,0,0,1,133.62,20.2Zm-.15,1.21v3.85h-.67V21.41Z"/><path class="cls-1" d="M135.21,19.66v5.6h-.68v-5.6Z"/><path class="cls-1" d="M137.08,20.2a.31.31,0,0,1,0,.19.65.65,0,0,1-.1.15.44.44,0,0,1-.16.1h-.19a.47.47,0,0,1-.33-.14,1.3,1.3,0,0,1-.1-.15.61.61,0,0,1,0-.19.61.61,0,0,1,0-.19.56.56,0,0,1,.1-.15.39.39,0,0,1,.15-.11.54.54,0,0,1,.18,0,.6.6,0,0,1,.19,0,.46.46,0,0,1,.16.11.31.31,0,0,1,.1.15A.45.45,0,0,1,137.08,20.2Zm-.14,1.21v3.85h-.68V21.41Z"/><path class="cls-1" d="M141.22,21.56v.25c0,.09-.05.14-.16.16l-.43.06a1.36,1.36,0,0,1,0,1.07,1.14,1.14,0,0,1-.3.39,1.29,1.29,0,0,1-.46.25,1.85,1.85,0,0,1-.58.09,1.79,1.79,0,0,1-.51-.07.58.58,0,0,0-.18.17.36.36,0,0,0-.07.17.24.24,0,0,0,.12.21,1,1,0,0,0,.29.1,2.94,2.94,0,0,0,.42,0h.48a3.7,3.7,0,0,1,.48.06,1.79,1.79,0,0,1,.41.13.78.78,0,0,1,.3.27.73.73,0,0,1,.11.43.91.91,0,0,1-.13.48,1.15,1.15,0,0,1-.35.41,1.71,1.71,0,0,1-.57.29,2.41,2.41,0,0,1-.76.11,3.12,3.12,0,0,1-.74-.09,1.7,1.7,0,0,1-.52-.22,1.05,1.05,0,0,1-.31-.32.88.88,0,0,1-.11-.39.7.7,0,0,1,.18-.48,1.43,1.43,0,0,1,.49-.32.86.86,0,0,1-.27-.2.62.62,0,0,1-.1-.35.49.49,0,0,1,0-.17l.09-.18.16-.17.21-.14a1.21,1.21,0,0,1-.45-.42,1.26,1.26,0,0,1,0-1.13,1.48,1.48,0,0,1,.31-.39,1.38,1.38,0,0,1,.46-.25,2.32,2.32,0,0,1,.58-.08,1.85,1.85,0,0,1,.47,0,1.4,1.4,0,0,1,.4.16Zm-.69,3.91a.29.29,0,0,0-.08-.23.42.42,0,0,0-.21-.13,1.09,1.09,0,0,0-.31-.08h-1.18a1.24,1.24,0,0,0-.35.25.56.56,0,0,0-.13.35.5.5,0,0,0,.06.24.8.8,0,0,0,.21.2,1.58,1.58,0,0,0,.34.13,2,2,0,0,0,.49,0,2,2,0,0,0,.49,0,1.14,1.14,0,0,0,.36-.15.58.58,0,0,0,.23-.21A.45.45,0,0,0,140.53,25.47Zm-1.22-2.09a1.15,1.15,0,0,0,.37-.06.76.76,0,0,0,.26-.16.63.63,0,0,0,.16-.24.86.86,0,0,0,.05-.32.73.73,0,0,0-.21-.56.85.85,0,0,0-.63-.21.84.84,0,0,0-.62.21.82.82,0,0,0-.22.56.87.87,0,0,0,.06.32.69.69,0,0,0,.42.4A1.13,1.13,0,0,0,139.31,23.38Z"/><path class="cls-1" d="M142.53,21.92a2,2,0,0,1,.55-.41,1.6,1.6,0,0,1,1.25-.06,1,1,0,0,1,.4.3,1,1,0,0,1,.24.46,1.54,1.54,0,0,1,.09.6v2.45h-.68V22.81a1,1,0,0,0-.2-.68.73.73,0,0,0-.61-.24A1.14,1.14,0,0,0,143,22a2,2,0,0,0-.48.4v2.83h-.68v-5.6h.68Z"/><path class="cls-1" d="M149.14,24.72a1.12,1.12,0,0,1-.3.27,2.12,2.12,0,0,1-.37.18,2.58,2.58,0,0,1-.42.11h-.42a1.85,1.85,0,0,1-.73-.13,1.67,1.67,0,0,1-.59-.4,1.73,1.73,0,0,1-.38-.64,2.89,2.89,0,0,1-.14-.88,2.36,2.36,0,0,1,.13-.75,1.94,1.94,0,0,1,.35-.61,1.73,1.73,0,0,1,.57-.4,2,2,0,0,1,.75-.15,1.73,1.73,0,0,1,.64.12,1.25,1.25,0,0,1,.51.33,1.46,1.46,0,0,1,.34.54,1.81,1.81,0,0,1,.12.73.37.37,0,0,1,0,.21.16.16,0,0,1-.13.06h-2.58a2.67,2.67,0,0,0,.1.63,1.53,1.53,0,0,0,.25.45,1.1,1.1,0,0,0,.38.27,1.43,1.43,0,0,0,.5.09,1.61,1.61,0,0,0,.44-.06l.31-.12.23-.13.15-.06a.16.16,0,0,1,.13.06Zm-.55-1.8a1.09,1.09,0,0,0-.06-.44.86.86,0,0,0-.2-.33.77.77,0,0,0-.31-.22.82.82,0,0,0-.41-.08,1,1,0,0,0-.77.28,1.36,1.36,0,0,0-.35.79Z"/><path class="cls-1" d="M150.81,20.2a.31.31,0,0,1,0,.19.65.65,0,0,1-.1.15.44.44,0,0,1-.16.1h-.37a.65.65,0,0,1-.15-.1.56.56,0,0,1-.1-.15.61.61,0,0,1,0-.19.61.61,0,0,1,0-.19.4.4,0,0,1,.1-.15.39.39,0,0,1,.15-.11.54.54,0,0,1,.18,0,.6.6,0,0,1,.19,0,.46.46,0,0,1,.16.11.32.32,0,0,1,.1.34Zm-.14,1.21v3.85H150V21.41Z"/><path class="cls-1" d="M154.89,19.66v5.6h-.41a.19.19,0,0,1-.18-.14l-.06-.47a1.86,1.86,0,0,1-.56.48,1.41,1.41,0,0,1-.73.18,1.57,1.57,0,0,1-.6-.12,1.4,1.4,0,0,1-.46-.38,1.72,1.72,0,0,1-.29-.61,3.48,3.48,0,0,1-.11-.85,2.66,2.66,0,0,1,.12-.79,2.14,2.14,0,0,1,.32-.64,1.64,1.64,0,0,1,.53-.42,1.4,1.4,0,0,1,.69-.16,1.42,1.42,0,0,1,.61.12,1.35,1.35,0,0,1,.45.33V19.66Zm-.68,2.67a1,1,0,0,0-.9-.46,1,1,0,0,0-.83.38,1.86,1.86,0,0,0-.29,1.1,2.73,2.73,0,0,0,.07.64,1.16,1.16,0,0,0,.19.44.83.83,0,0,0,.3.26,1.25,1.25,0,0,0,.42.08,1,1,0,0,0,.58-.16,1.54,1.54,0,0,0,.46-.42Z"/><path class="cls-1" d="M158.13,22.05a.18.18,0,0,1-.15.08.24.24,0,0,1-.12,0l-.18-.1-.25-.09a1,1,0,0,0-.34,0,.81.81,0,0,0-.31,0,1,1,0,0,0-.23.12.54.54,0,0,0-.15.18.5.5,0,0,0-.05.21.44.44,0,0,0,.08.25.91.91,0,0,0,.23.17A1.82,1.82,0,0,0,157,23l.36.12.37.14a1.13,1.13,0,0,1,.32.19.77.77,0,0,1,.23.28.76.76,0,0,1,.08.39,1,1,0,0,1-.09.49,1.12,1.12,0,0,1-.28.4,1.48,1.48,0,0,1-.46.26,2.16,2.16,0,0,1-.62.09,1.85,1.85,0,0,1-.73-.13,1.91,1.91,0,0,1-.56-.34l.16-.25.07-.08H156a.17.17,0,0,1,.14.06l.19.11a1.23,1.23,0,0,0,.26.12,1.32,1.32,0,0,0,.39.06,1,1,0,0,0,.35-.06.7.7,0,0,0,.24-.13.51.51,0,0,0,.15-.21.52.52,0,0,0,0-.24.31.31,0,0,0-.09-.26.79.79,0,0,0-.22-.18,1.62,1.62,0,0,0-.33-.13l-.36-.12a2.79,2.79,0,0,1-.37-.14,1.5,1.5,0,0,1-.32-.19.88.88,0,0,1-.32-.71,1,1,0,0,1,.1-.43,1.28,1.28,0,0,1,.26-.35,1.24,1.24,0,0,1,.43-.25,2,2,0,0,1,.58-.09,2,2,0,0,1,.69.12,1.65,1.65,0,0,1,.52.33Z"/><path class="cls-1" d="M159.78,22a2,2,0,0,1,.55-.45,1.57,1.57,0,0,1,.7-.17,1.29,1.29,0,0,1,.61.13,1.14,1.14,0,0,1,.47.37,2,2,0,0,1,.29.6,2.93,2.93,0,0,1,.1.78,2.52,2.52,0,0,1-.12.86,1.61,1.61,0,0,1-.33.65,1.34,1.34,0,0,1-.52.42,1.62,1.62,0,0,1-.69.15,1.3,1.3,0,0,1-.64-.14,1.33,1.33,0,0,1-.45-.4v.35a.16.16,0,0,1-.17.14h-.44v-5.6h.68Zm0,2.36a1.18,1.18,0,0,0,.41.36,1.23,1.23,0,0,0,.49.1,1,1,0,0,0,.83-.38,1.87,1.87,0,0,0,.29-1.15,1.69,1.69,0,0,0-.26-1,.85.85,0,0,0-.73-.33,1.19,1.19,0,0,0-.58.15,2,2,0,0,0-.45.43Z"/><path class="cls-1" d="M164.9,21.35a2,2,0,0,1,.76.14,1.55,1.55,0,0,1,.58.4,1.62,1.62,0,0,1,.37.63,2.83,2.83,0,0,1,0,1.63,1.62,1.62,0,0,1-.37.63,1.67,1.67,0,0,1-.58.4,2.33,2.33,0,0,1-1.52,0,1.77,1.77,0,0,1-.58-.4,1.9,1.9,0,0,1-.37-.63,2.67,2.67,0,0,1,0-1.63,1.9,1.9,0,0,1,.37-.63,1.55,1.55,0,0,1,.58-.4A2,2,0,0,1,164.9,21.35Zm0,3.44a1,1,0,0,0,.85-.39,2.09,2.09,0,0,0,0-2.13,1,1,0,0,0-.85-.39,1.09,1.09,0,0,0-.5.1,1.12,1.12,0,0,0-.36.29,1.85,1.85,0,0,0-.21.45,2.56,2.56,0,0,0-.07.62A1.79,1.79,0,0,0,164,24.4,1,1,0,0,0,164.9,24.79Z"/><path class="cls-1" d="M168.16,22.18a1.87,1.87,0,0,1,.45-.62,1,1,0,0,1,.64-.22,1,1,0,0,1,.24,0,.7.7,0,0,1,.2.08v.51a.1.1,0,0,1-.12.09.38.38,0,0,1-.15,0h-.23a.91.91,0,0,0-.33,0,1,1,0,0,0-.25.16.86.86,0,0,0-.2.26,3.78,3.78,0,0,0-.17.35v2.43h-.68V21.41h.54a.2.2,0,0,1,.06.15Z"/><path class="cls-1" d="M173.24,19.66v5.6h-.4a.17.17,0,0,1-.18-.14l-.06-.47a2.21,2.21,0,0,1-.57.48,1.41,1.41,0,0,1-.73.18,1.57,1.57,0,0,1-.6-.12,1.4,1.4,0,0,1-.46-.38,1.91,1.91,0,0,1-.29-.61,3.47,3.47,0,0,1-.1-.85,3,3,0,0,1,.11-.79,2.16,2.16,0,0,1,.33-.64,1.51,1.51,0,0,1,.52-.42,1.44,1.44,0,0,1,.7-.16,1.58,1.58,0,0,1,.61.12,1.63,1.63,0,0,1,.45.33V19.66Zm-.67,2.67a1.1,1.1,0,0,0-.41-.36,1.18,1.18,0,0,0-.5-.1,1,1,0,0,0-.82.38,1.86,1.86,0,0,0-.29,1.1,3.47,3.47,0,0,0,.06.64,1.34,1.34,0,0,0,.19.44.86.86,0,0,0,.31.26,1.15,1.15,0,0,0,.41.08,1,1,0,0,0,.59-.16,1.54,1.54,0,0,0,.46-.42Z"/><path class="cls-1" d="M177.36,24.72a1.12,1.12,0,0,1-.3.27,2.12,2.12,0,0,1-.37.18,2.75,2.75,0,0,1-.41.11h-.43a2,2,0,0,1-.73-.13,1.44,1.44,0,0,1-.58-.4,1.9,1.9,0,0,1-.39-.64,2.89,2.89,0,0,1-.13-.88,2.4,2.4,0,0,1,.12-.75,1.69,1.69,0,0,1,.92-1,2,2,0,0,1,.76-.15,1.73,1.73,0,0,1,.64.12,1.25,1.25,0,0,1,.51.33,1.51,1.51,0,0,1,.33.54,1.81,1.81,0,0,1,.12.73.37.37,0,0,1,0,.21.14.14,0,0,1-.13.06h-2.57a2.24,2.24,0,0,0,.1.63,1.24,1.24,0,0,0,.25.45,1.1,1.1,0,0,0,.38.27,1.41,1.41,0,0,0,.49.09,1.61,1.61,0,0,0,.44-.06l.32-.12.22-.13.15-.06a.16.16,0,0,1,.13.06Zm-.54-1.8a1.31,1.31,0,0,0-.07-.44.86.86,0,0,0-.2-.33.73.73,0,0,0-.3-.22,1,1,0,0,0-.42-.08,1,1,0,0,0-.77.28,1.36,1.36,0,0,0-.35.79Z"/><path class="cls-1" d="M178.81,22l.27-.26a2.49,2.49,0,0,1,.3-.19,1.51,1.51,0,0,1,.33-.13,2.64,2.64,0,0,1,.94.1,1.12,1.12,0,0,1,.41.3,1.35,1.35,0,0,1,.24.46,1.74,1.74,0,0,1,.08.6v2.45h-.68V22.81a1,1,0,0,0-.2-.68.71.71,0,0,0-.6-.24,1.25,1.25,0,0,0-.56.14,1.83,1.83,0,0,0-.48.4v2.83h-.68V21.41h.4a.16.16,0,0,1,.18.14Z"/><path class="cls-1" d="M166.59,1.72v8H167a.85.85,0,0,0,.39-.07.7.7,0,0,0,.28-.26l2.18-2.88a1.06,1.06,0,0,1,.37-.33.86.86,0,0,1,.52-.11h2.39l-2.82,3.57a2.62,2.62,0,0,1-.78.7,1.27,1.27,0,0,1,.38.35,2.77,2.77,0,0,1,.31.45l3,4.73h-2.33a1.37,1.37,0,0,1-.52-.1,1,1,0,0,1-.36-.36l-2.19-3.61a.69.69,0,0,0-.27-.29.89.89,0,0,0-.43-.07h-.55v4.42h-2.68L164,1.69Z"/><path class="cls-1" d="M178.26,6a5.21,5.21,0,0,1,2,.36,4.31,4.31,0,0,1,2.54,2.59,6,6,0,0,1,.35,2.1,6,6,0,0,1-.36,2.1,4.3,4.3,0,0,1-2.55,2.59,5.85,5.85,0,0,1-4,0,4.4,4.4,0,0,1-1.55-1,4.6,4.6,0,0,1-1-1.6,6.3,6.3,0,0,1,0-4.2,4.52,4.52,0,0,1,1-1.58,4.84,4.84,0,0,1,1.56-1A5.8,5.8,0,0,1,178.26,6Zm0,8.12a1.87,1.87,0,0,0,1.67-.77,4,4,0,0,0,.55-2.3,3.93,3.93,0,0,0-.56-2.29A1.87,1.87,0,0,0,178.26,8a1.91,1.91,0,0,0-1.69.76A4,4,0,0,0,176,11a4.2,4.2,0,0,0,.53,2.3,1.94,1.94,0,0,0,1.68.78Z"/><path class="cls-1" d="M187.28,7.48a7,7,0,0,1,.63-.59,4.1,4.1,0,0,1,.71-.46,4,4,0,0,1,.82-.3,4.33,4.33,0,0,1,.95-.11,3.16,3.16,0,0,1,1.45.34,3.2,3.2,0,0,1,1.13,1,4.82,4.82,0,0,1,.74,1.57,8,8,0,0,1,.26,2.13,6.79,6.79,0,0,1-.31,2,4.73,4.73,0,0,1-.86,1.61,4,4,0,0,1-1.33,1.07,3.76,3.76,0,0,1-1.72.38,3.47,3.47,0,0,1-1.35-.24,3.82,3.82,0,0,1-1-.65v3.9h-2.62v-13h1.62a.61.61,0,0,1,.65.46Zm.13,5.93a2.14,2.14,0,0,0,.8.6,2.48,2.48,0,0,0,.93.18A2.11,2.11,0,0,0,190,14a1.74,1.74,0,0,0,.67-.56,2.81,2.81,0,0,0,.44-1,5.76,5.76,0,0,0,.16-1.43,5.9,5.9,0,0,0-.13-1.39,2.7,2.7,0,0,0-.35-.92,1.47,1.47,0,0,0-.57-.51,1.7,1.7,0,0,0-.74-.16,2.36,2.36,0,0,0-1.16.27,3.19,3.19,0,0,0-.89.79Z"/><path class="cls-1" d="M197.74,11.48a3.06,3.06,0,0,0,.77,2,2.44,2.44,0,0,0,1.72.64,3,3,0,0,0,.94-.13,4.15,4.15,0,0,0,.69-.28l.55-.28a1,1,0,0,1,.48-.13.54.54,0,0,1,.47.23l.76,1a4,4,0,0,1-.93.8,4.92,4.92,0,0,1-1,.5,5.69,5.69,0,0,1-1.1.26,9.28,9.28,0,0,1-1.06.06,5.2,5.2,0,0,1-1.91-.34,4.4,4.4,0,0,1-1.55-1,4.9,4.9,0,0,1-1-1.65,6.52,6.52,0,0,1-.38-2.27A5.73,5.73,0,0,1,195.53,9a4.51,4.51,0,0,1,2.39-2.48,5.22,5.22,0,0,1,3.73-.07,3.9,3.9,0,0,1,2.27,2.23,5.1,5.1,0,0,1,.31,1.89,2,2,0,0,1,0,.49.63.63,0,0,1-.1.3.31.31,0,0,1-.21.16.71.71,0,0,1-.29,0Zm4.12-1.54a2.57,2.57,0,0,0-.1-.78,1.83,1.83,0,0,0-.35-.66,1.63,1.63,0,0,0-.59-.45,2.33,2.33,0,0,0-2.34.35,2.78,2.78,0,0,0-.7,1.52Z"/><path class="cls-1" d="M208.28,7.37a7.31,7.31,0,0,1,.61-.52,3.91,3.91,0,0,1,.68-.4,3.71,3.71,0,0,1,.77-.27,4.48,4.48,0,0,1,.89-.09,3.43,3.43,0,0,1,1.42.28,2.83,2.83,0,0,1,1,.78,3.14,3.14,0,0,1,.63,1.18,4.77,4.77,0,0,1,.21,1.5v6.22h-2.57V9.83a1.86,1.86,0,0,0-.38-1.27,1.42,1.42,0,0,0-1.12-.46,2.37,2.37,0,0,0-1,.24,3.52,3.52,0,0,0-.92.66v7h-2.63V6.21h1.61a.64.64,0,0,1,.66.46Z"/><path class="cls-1" d="M216.22,14.68a1.53,1.53,0,0,1,.12-.6,1.47,1.47,0,0,1,.33-.48,1.54,1.54,0,0,1,.49-.32,1.67,1.67,0,0,1,.62-.12,1.53,1.53,0,0,1,.6.12,1.41,1.41,0,0,1,.5.33,1.31,1.31,0,0,1,.32.48,1.53,1.53,0,0,1,.12.6,1.36,1.36,0,0,1-.12.59,1.29,1.29,0,0,1-.33.48,1.58,1.58,0,0,1-1.1.43,1.88,1.88,0,0,1-.62-.11,1.92,1.92,0,0,1-.48-.32,1.63,1.63,0,0,1-.33-.49A1.52,1.52,0,0,1,216.22,14.68Z"/><path class="cls-1" d="M223.76,7.41a4.83,4.83,0,0,1,1.29-.92,3.5,3.5,0,0,1,1.58-.35,3.32,3.32,0,0,1,1.52.34,3.18,3.18,0,0,1,1.15,1A4.48,4.48,0,0,1,230,9a7.09,7.09,0,0,1,.26,2,7.52,7.52,0,0,1-.31,2.16,4.92,4.92,0,0,1-.86,1.67,3.87,3.87,0,0,1-3.84,1.35,3.12,3.12,0,0,1-.66-.26,4.24,4.24,0,0,1-.56-.38c-.17-.16-.33-.33-.49-.5l-.1.58a.62.62,0,0,1-.22.39.72.72,0,0,1-.41.11h-1.74V2h2.62Zm0,6.08a2.28,2.28,0,0,0,.8.61,2.56,2.56,0,0,0,.9.17,2.38,2.38,0,0,0,.88-.17,1.77,1.77,0,0,0,.68-.56,2.81,2.81,0,0,0,.44-1,6.8,6.8,0,0,0,.16-1.49,6.14,6.14,0,0,0-.14-1.29,2.43,2.43,0,0,0-.36-.9,1.48,1.48,0,0,0-.6-.51,1.74,1.74,0,0,0-.81-.17,2,2,0,0,0-1.07.27,3.47,3.47,0,0,0-.88.79Z"/><path class="cls-1" d="M234.06,11.62a3.13,3.13,0,0,0,.78,2,2.44,2.44,0,0,0,1.72.64,3,3,0,0,0,.94-.13,4.15,4.15,0,0,0,.69-.28l.55-.28a1,1,0,0,1,.48-.13.54.54,0,0,1,.47.23l.76,1a4,4,0,0,1-.93.8,4.07,4.07,0,0,1-1,.5,5.69,5.69,0,0,1-1.1.26,9.28,9.28,0,0,1-1.06.06,5.2,5.2,0,0,1-1.91-.34,4.4,4.4,0,0,1-1.55-1,4.77,4.77,0,0,1-1-1.64,6.58,6.58,0,0,1-.38-2.28,5.73,5.73,0,0,1,.34-1.88,4.71,4.71,0,0,1,1-1.53,4.59,4.59,0,0,1,1.5-1,4.93,4.93,0,0,1,2-.37,4.64,4.64,0,0,1,1.73.3,3.73,3.73,0,0,1,1.37.87,3.94,3.94,0,0,1,.82,1.34,5,5,0,0,1,.31,1.89,2,2,0,0,1,0,.49.67.67,0,0,1-.1.3.32.32,0,0,1-.18.16.71.71,0,0,1-.29,0Zm4.13-1.54a2.53,2.53,0,0,0-.1-.78,1.83,1.83,0,0,0-.35-.66,1.67,1.67,0,0,0-.6-.45,2,2,0,0,0-.86-.17,2,2,0,0,0-1.47.53,2.65,2.65,0,0,0-.7,1.51Z"/></g></g></svg>